<?xml version="1.0" encoding="UTF-8" ?>
<!DOCTYPE svg PUBLIC "-//W3C//DTD SVG 1.1//EN" "http://www.w3.org/Graphics/SVG/1.1/DTD/svg11.dtd">
<svg width="690pt" height="509pt" viewBox="0 0 690 509" version="1.1" xmlns="http://www.w3.org/2000/svg">
<g id="#ffffffff">
<path fill="#ffffff" opacity="1.00" d=" M 380.39 15.41 C 383.48 12.54 387.90 11.54 392.01 12.25 C 397.68 14.96 399.53 21.97 405.02 24.95 C 406.60 25.68 408.30 26.06 409.96 26.59 C 402.40 27.77 394.71 26.72 387.09 27.09 C 374.06 27.23 361.02 26.89 347.99 27.29 C 346.66 27.31 345.27 27.28 344.15 26.50 C 346.69 24.25 348.89 21.34 352.31 20.37 C 357.19 18.97 362.47 19.78 367.10 21.71 C 372.55 23.17 376.53 18.37 380.39 15.41 Z" />
<path fill="#ffffff" opacity="1.00" d=" M 228.13 124.73 C 273.90 124.60 319.69 124.54 365.47 124.77 C 365.48 138.89 363.56 152.93 363.21 167.04 C 362.83 176.37 361.57 185.63 361.38 194.97 C 361.25 202.36 360.48 209.71 359.88 217.07 C 359.48 232.02 357.91 246.91 357.19 261.85 C 352.29 259.16 346.55 258.65 341.10 259.50 C 332.09 261.28 324.37 268.67 322.73 277.79 C 321.34 282.85 322.45 288.21 324.46 292.93 C 324.26 293.30 323.86 294.04 323.66 294.40 C 322.37 294.28 321.08 294.10 319.81 293.94 C 319.43 291.05 319.23 288.13 318.56 285.30 C 317.96 282.98 315.37 281.34 313.01 281.81 C 291.66 284.64 270.29 287.44 248.94 290.33 C 238.58 291.48 228.30 293.43 217.91 294.16 C 217.79 292.40 217.68 290.65 217.67 288.89 C 218.99 264.56 220.92 240.26 222.17 215.92 C 223.63 203.01 223.47 189.98 224.91 177.06 C 225.71 159.60 227.20 142.18 228.13 124.73 M 233.25 158.96 C 232.65 168.97 232.08 179.02 232.21 189.05 C 232.46 191.89 235.48 193.03 237.97 192.81 C 263.94 192.90 289.92 192.80 315.90 192.86 C 326.96 192.82 338.02 192.89 349.08 192.82 C 352.27 193.15 354.38 189.90 354.18 187.01 C 354.21 177.33 355.08 167.70 355.49 158.04 C 355.98 154.90 353.15 151.93 350.00 152.32 C 339.01 152.35 328.02 152.30 317.03 152.36 C 290.68 152.30 264.31 152.32 237.95 152.34 C 234.48 152.08 233.33 156.19 233.25 158.96 M 229.35 214.97 C 228.93 224.64 228.63 234.31 228.04 243.97 C 227.63 246.86 229.54 250.60 232.92 249.95 C 258.88 250.00 284.84 250.01 310.79 249.93 C 322.20 250.08 333.62 249.98 345.03 249.99 C 348.40 250.52 350.41 246.95 350.22 244.02 C 350.45 234.68 350.83 225.34 351.45 216.02 C 352.14 212.70 349.42 209.22 345.93 209.57 C 334.63 209.63 323.32 209.34 312.04 209.76 C 286.35 209.38 260.64 209.70 234.95 209.60 C 231.94 209.27 229.43 212.10 229.35 214.97 Z" />
<path fill="#ffffff" opacity="1.00" d=" M 329.38 160.40 C 337.15 158.05 345.79 164.99 345.24 173.06 C 345.24 179.87 338.97 186.01 332.09 185.45 C 325.12 185.64 319.29 178.89 319.72 172.09 C 319.91 166.62 324.21 161.84 329.38 160.40 M 330.87 174.17 C 328.74 174.19 326.63 169.15 324.82 172.05 C 325.46 174.68 328.24 176.13 330.05 177.99 C 333.79 175.83 337.05 172.90 340.27 170.04 C 340.21 169.51 340.08 168.44 340.02 167.90 C 336.35 168.94 334.07 172.29 330.87 174.17 Z" />
<path fill="#ffffff" opacity="1.00" d=" M 473.59 169.37 C 473.85 169.35 474.37 169.31 474.63 169.29 C 475.87 173.16 478.05 176.61 481.75 178.56 C 480.17 180.37 478.22 181.83 476.72 183.70 C 475.84 185.45 475.16 187.29 474.28 189.04 C 472.26 185.08 470.30 180.96 466.18 178.79 C 469.61 176.49 472.47 173.45 473.59 169.37 Z" />
<path fill="#ffffff" opacity="1.00" d=" M 324.34 218.43 C 331.59 215.06 341.15 219.90 341.99 228.01 C 343.80 235.74 336.70 243.33 329.01 242.86 C 322.73 242.71 317.11 237.30 316.87 230.98 C 316.47 225.82 319.46 220.38 324.34 218.43 M 327.30 231.78 C 325.77 230.34 324.33 228.63 322.21 228.11 C 321.09 231.35 325.14 233.18 327.01 235.22 C 330.34 233.67 332.95 231.00 335.84 228.79 C 336.97 228.06 338.19 226.38 336.74 225.27 C 332.98 226.41 330.77 230.08 327.30 231.78 Z" />
<path fill="#ffffff" opacity="1.00" d=" M 327.08 307.00 C 326.97 303.73 325.72 300.34 327.02 297.16 C 333.23 305.24 344.72 308.52 354.24 304.84 C 354.46 313.27 353.34 321.64 352.84 330.03 C 352.25 338.31 352.30 346.63 351.38 354.89 C 350.14 366.26 350.67 377.75 348.98 389.08 C 303.00 389.65 257.01 390.22 211.02 390.17 C 212.37 370.70 213.62 351.23 214.83 331.75 C 216.18 331.79 217.53 331.81 218.88 331.80 C 218.96 334.75 218.63 337.78 219.38 340.66 C 220.74 342.78 223.40 344.23 225.95 343.85 C 258.90 339.12 291.93 334.89 324.96 330.71 C 326.75 330.27 328.95 329.08 329.03 327.00 C 329.54 320.26 327.46 313.69 327.08 307.00 Z" />
<path fill="#ffffff" opacity="1.00" d=" M 70.61 407.05 C 75.08 406.91 79.36 405.55 83.44 403.83 C 93.63 412.40 105.03 419.47 116.80 425.64 C 114.63 426.44 112.28 426.29 110.00 426.42 C 96.46 426.79 82.99 428.40 69.45 428.71 C 70.50 421.53 70.61 414.28 70.61 407.05 Z" />
<path fill="#ffffff" opacity="1.00" d=" M 601.47 412.69 C 601.81 412.68 602.48 412.66 602.82 412.65 C 602.96 418.10 603.67 423.50 604.55 428.88 C 604.34 429.39 603.93 430.42 603.72 430.94 C 597.16 431.72 590.49 431.45 583.91 431.03 C 587.03 426.48 592.11 423.87 595.54 419.60 C 597.45 417.25 599.36 414.88 601.47 412.69 Z" />
</g>
<g id="#ebecfaff">
<path fill="#ebecfa" opacity="1.00" d=" M 381.01 12.03 C 384.43 9.57 388.95 9.42 392.96 10.17 C 398.45 12.05 400.36 18.02 404.33 21.66 C 409.65 25.00 416.18 24.96 422.06 26.69 C 423.36 26.87 424.26 27.73 424.94 28.78 C 423.49 29.80 421.68 29.66 420.01 29.68 C 393.37 29.55 366.73 29.96 340.10 29.80 C 339.37 27.62 341.37 26.14 342.64 24.71 C 345.80 21.68 349.07 18.14 353.64 17.48 C 358.76 16.13 363.76 18.57 368.71 19.51 C 373.76 18.95 376.89 14.49 381.01 12.03 M 380.39 15.41 C 376.53 18.37 372.55 23.17 367.10 21.71 C 362.47 19.78 357.19 18.97 352.31 20.37 C 348.89 21.34 346.69 24.25 344.15 26.50 C 345.27 27.28 346.66 27.31 347.99 27.29 C 361.02 26.89 374.06 27.23 387.09 27.09 C 394.71 26.72 402.40 27.77 409.96 26.59 C 408.30 26.06 406.60 25.68 405.02 24.95 C 399.53 21.97 397.68 14.96 392.01 12.25 C 387.90 11.54 383.48 12.54 380.39 15.41 Z" />
</g>
<g id="#eaedfeff">
<path fill="#eaedfe" opacity="1.00" d=" M 567.88 54.69 C 572.53 53.88 577.87 53.26 582.00 56.06 C 589.76 61.00 592.60 70.78 600.18 75.85 C 610.42 81.00 622.27 81.16 633.02 84.73 C 630.02 85.06 627.00 85.07 624.00 85.04 C 591.33 84.97 558.66 85.29 525.99 85.18 C 513.64 85.32 501.28 84.92 488.94 85.49 C 490.22 82.21 492.75 79.62 495.39 77.38 C 499.20 74.50 502.30 70.56 506.96 68.96 C 515.47 65.13 524.97 67.55 533.31 70.60 C 538.41 72.84 544.27 70.71 548.24 67.22 C 554.40 62.54 559.89 56.09 567.88 54.69 Z" />
<path fill="#eaedfe" opacity="1.00" d=" M 96.61 149.62 C 101.81 147.73 107.92 149.31 111.80 153.20 C 115.68 156.18 119.69 160.49 124.99 160.02 C 129.47 158.52 134.09 157.10 138.87 157.31 C 146.17 157.74 151.33 163.76 155.92 168.78 C 150.95 169.32 145.95 169.07 140.97 169.10 C 114.99 168.98 89.00 169.30 63.03 168.77 C 69.15 166.01 76.26 166.38 82.35 163.45 C 88.41 160.21 89.96 152.01 96.61 149.62 Z" />
<path fill="#eaedfe" opacity="1.00" d=" M 52.20 249.21 C 65.89 235.81 85.21 229.72 104.02 228.89 C 127.78 228.03 151.32 235.33 171.78 247.13 C 181.51 252.42 189.37 260.48 198.76 266.27 C 197.93 277.85 196.92 289.40 196.19 300.99 C 196.09 306.84 194.77 312.63 195.16 318.50 C 185.86 324.37 176.56 330.26 167.11 335.90 C 159.55 327.76 151.56 320.04 144.00 311.91 C 142.77 310.48 140.91 309.96 139.19 309.39 C 139.72 306.81 140.18 304.23 140.57 301.63 C 144.30 299.94 148.36 298.16 150.45 294.41 C 152.99 289.92 153.06 284.57 154.33 279.67 C 158.74 280.49 163.10 276.45 162.06 271.92 C 161.28 266.29 154.30 264.88 149.64 266.18 C 144.92 262.67 139.20 260.39 133.23 261.26 C 135.47 254.55 131.49 246.57 124.78 244.30 C 117.55 241.37 108.30 246.05 106.70 253.74 C 104.09 261.69 110.68 270.74 118.99 271.06 C 118.33 276.84 115.40 282.69 117.48 288.49 C 118.75 293.15 122.20 297.01 126.57 299.05 C 126.11 301.11 125.66 303.17 125.19 305.23 C 119.94 305.04 115.99 309.23 112.71 312.79 C 102.64 324.25 96.72 339.22 96.12 354.45 C 91.00 347.30 85.25 340.52 81.17 332.69 C 76.98 322.67 76.20 311.49 71.24 301.75 C 68.09 295.61 63.58 289.63 56.99 286.97 C 50.48 284.52 42.71 286.03 37.35 290.38 C 32.95 294.21 31.82 300.38 31.86 305.95 C 32.16 316.63 34.93 327.03 37.51 337.35 C 38.63 341.99 40.31 346.56 40.41 351.39 C 39.57 350.28 38.66 349.22 38.10 347.95 C 31.09 331.35 28.29 312.91 30.69 295.02 C 32.59 277.98 39.59 261.09 52.20 249.21 M 88.89 281.99 C 90.64 284.06 92.22 286.28 93.46 288.70 C 94.30 286.02 96.30 284.06 98.12 282.03 C 96.41 280.20 94.82 278.25 93.46 276.14 C 91.86 278.03 90.35 279.99 88.89 281.99 Z" />
<path fill="#eaedfe" opacity="1.00" d=" M 456.47 285.32 C 472.16 283.45 488.13 283.53 503.63 286.79 C 503.79 286.07 504.09 284.63 504.24 283.90 C 505.05 290.14 505.05 296.55 503.66 302.70 C 500.79 316.31 491.98 328.01 490.41 341.97 C 489.80 350.42 489.55 359.44 493.87 367.06 C 499.72 378.33 512.09 384.39 524.13 386.53 C 524.44 401.83 526.05 417.07 528.69 432.13 C 509.88 432.14 491.07 432.09 472.27 432.15 C 469.20 418.35 467.05 404.36 464.35 390.48 C 461.10 375.84 461.77 360.73 459.91 345.91 C 459.74 336.97 458.32 328.14 457.71 319.23 C 458.45 318.90 459.94 318.23 460.68 317.90 C 459.10 307.61 457.10 297.40 455.40 287.14 C 455.67 286.68 456.21 285.78 456.47 285.32 Z" />
<path fill="#eaedfe" opacity="1.00" d=" M 408.21 305.10 L 408.59 305.08 C 408.62 305.86 408.70 307.44 408.73 308.22 C 408.91 311.45 409.37 314.64 409.88 317.83 C 410.45 318.09 411.59 318.62 412.17 318.88 C 407.90 334.52 404.16 350.32 400.05 366.01 C 398.80 371.61 396.43 377.14 397.36 383.00 C 397.71 399.39 399.08 415.73 399.55 432.12 C 385.91 432.15 372.28 432.12 358.65 432.11 C 363.49 429.71 368.71 427.47 372.18 423.15 C 374.64 420.12 377.15 416.91 378.05 413.03 C 379.55 406.45 379.79 399.67 380.03 392.96 C 381.33 380.68 381.56 368.33 382.90 356.06 C 383.43 339.37 385.45 322.78 386.23 306.11 C 393.51 304.93 400.97 306.76 408.21 305.10 Z" />
<path fill="#eaedfe" opacity="1.00" d=" M 567.57 319.72 C 572.84 323.35 576.38 328.81 580.44 333.64 C 583.63 338.67 587.60 343.31 589.61 348.99 C 588.26 352.00 588.67 355.34 589.23 358.49 C 591.43 372.18 595.01 386.08 602.53 397.89 C 602.80 402.80 602.63 407.73 602.82 412.65 C 602.48 412.66 601.81 412.68 601.47 412.69 C 599.36 414.88 597.45 417.25 595.54 419.60 C 592.11 423.87 587.03 426.48 583.91 431.03 C 590.49 431.45 597.16 431.72 603.72 430.94 C 603.93 430.42 604.34 429.39 604.55 428.88 C 604.71 429.96 604.87 431.04 605.05 432.12 C 580.64 432.12 556.23 432.12 531.82 432.12 C 528.82 417.09 527.58 401.76 526.84 386.48 C 539.58 385.37 552.25 380.52 561.60 371.63 C 565.03 368.31 566.96 363.76 568.09 359.19 C 570.52 346.07 566.49 332.86 567.57 319.72 Z" />
<path fill="#eaedfe" opacity="1.00" d=" M 431.18 336.08 C 432.87 335.89 434.57 335.98 436.27 336.17 C 437.94 349.38 439.03 362.64 440.79 375.84 C 441.51 387.11 445.11 397.91 447.09 408.99 C 448.97 416.59 450.29 424.31 452.31 431.88 C 441.22 432.03 430.13 431.90 419.04 431.97 C 418.26 416.00 419.20 399.98 418.50 384.00 C 418.06 379.48 419.70 375.21 420.98 370.98 C 424.29 359.32 428.04 347.78 431.18 336.08 Z" />
<path fill="#eaedfe" opacity="1.00" d=" M 146.94 337.69 C 152.12 342.26 156.94 347.23 161.95 352.00 C 164.24 354.47 168.27 354.36 171.12 353.05 C 178.46 348.62 185.64 343.95 192.90 339.39 C 192.73 348.70 192.36 358.07 190.89 367.28 C 188.06 366.26 185.01 366.42 182.06 366.34 C 171.08 366.14 160.10 365.83 149.13 365.39 C 145.35 356.69 145.56 346.89 146.94 337.69 Z" />
<path fill="#eaedfe" opacity="1.00" d=" M 97.23 391.22 C 99.86 387.13 100.37 382.21 101.76 377.66 C 106.79 393.64 111.49 409.75 116.80 425.64 C 105.03 419.47 93.63 412.40 83.44 403.83 C 89.07 400.97 94.09 396.76 97.23 391.22 Z" />
<path fill="#eaedfe" opacity="1.00" d=" M 136.69 390.58 C 136.92 390.34 137.38 389.87 137.61 389.63 C 149.31 389.46 161.00 389.04 172.70 388.98 L 172.99 389.44 C 171.98 403.71 169.83 417.87 168.61 432.12 C 159.35 432.13 150.08 432.10 140.81 432.14 C 139.73 418.27 138.47 404.39 136.69 390.58 Z" />
</g>
<g id="#4644d3ff">
<path fill="#4644d3" opacity="1.00" d=" M 110.10 88.09 C 108.11 77.54 117.17 66.40 128.00 66.62 C 142.01 66.60 156.01 66.60 170.02 66.62 C 178.11 66.54 185.51 72.74 187.47 80.48 C 189.06 86.49 187.35 92.84 183.73 97.77 C 185.23 100.82 186.02 104.14 187.09 107.35 C 183.93 105.71 180.92 103.81 177.71 102.27 C 174.92 103.39 171.98 104.10 168.96 104.01 C 156.98 104.01 144.99 104.01 133.01 104.02 C 129.67 104.01 126.25 104.21 123.00 103.27 C 116.31 101.18 110.99 95.09 110.10 88.09 M 131.35 83.24 C 130.21 84.81 130.97 86.70 131.65 88.27 C 133.27 89.04 135.23 90.02 136.97 88.96 C 139.05 88.06 139.74 85.19 138.62 83.29 C 137.41 80.46 132.63 80.49 131.35 83.24 M 144.95 82.92 C 145.00 84.61 145.03 86.30 145.08 87.99 C 147.23 89.30 150.16 90.19 152.19 88.12 C 153.51 86.16 153.26 83.04 151.25 81.62 C 149.06 80.74 146.67 81.41 144.95 82.92 M 159.36 83.27 C 157.02 86.71 161.52 91.02 164.95 88.94 C 168.05 87.60 167.73 83.38 165.29 81.53 C 163.18 81.16 160.35 80.84 159.36 83.27 Z" />
<path fill="#4644d3" opacity="1.00" d=" M 607.40 300.39 C 612.73 297.40 619.07 298.12 624.77 299.48 C 631.57 301.77 636.39 308.82 635.88 316.01 C 636.15 323.61 631.64 330.06 628.66 336.71 C 624.72 344.39 619.64 351.68 617.50 360.15 C 616.00 366.28 619.47 371.82 620.61 377.64 C 620.41 381.74 618.50 385.50 615.65 388.40 C 612.25 391.63 608.62 394.61 604.90 397.46 C 605.90 375.08 607.59 352.59 612.62 330.70 C 612.06 330.62 610.95 330.44 610.39 330.36 C 607.12 339.13 606.87 348.68 605.29 357.85 C 603.85 371.15 602.74 384.50 602.53 397.89 C 595.01 386.08 591.43 372.18 589.23 358.49 C 588.67 355.34 588.26 352.00 589.61 348.99 C 591.63 345.30 596.26 346.70 599.32 348.14 C 596.89 338.35 596.74 328.11 597.62 318.11 C 598.70 311.41 601.10 303.92 607.40 300.39 Z" />
</g>
<g id="#fefdfcff">
<path fill="#fefdfc" opacity="1.00" d=" M 131.35 83.24 C 132.63 80.49 137.41 80.46 138.62 83.29 C 139.74 85.19 139.05 88.06 136.97 88.96 C 135.23 90.02 133.27 89.04 131.65 88.27 C 130.97 86.70 130.21 84.81 131.35 83.24 Z" />
</g>
<g id="#fefdfbff">
<path fill="#fefdfb" opacity="1.00" d=" M 144.95 82.92 C 146.67 81.41 149.06 80.74 151.25 81.62 C 153.26 83.04 153.51 86.16 152.19 88.12 C 150.16 90.19 147.23 89.30 145.08 87.99 C 145.03 86.30 145.00 84.61 144.95 82.92 Z" />
</g>
<g id="#fefdfdff">
<path fill="#fefdfd" opacity="1.00" d=" M 159.36 83.27 C 160.35 80.84 163.18 81.16 165.29 81.53 C 167.73 83.38 168.05 87.60 164.95 88.94 C 161.52 91.02 157.02 86.71 159.36 83.27 Z" />
</g>
<g id="#c7cceaff">
<path fill="#c7ccea" opacity="1.00" d=" M 211.35 116.31 C 215.37 106.17 226.03 98.81 237.02 99.29 C 279.25 99.40 321.49 99.36 363.73 99.82 C 368.95 102.51 374.78 104.66 378.64 109.31 C 381.96 113.53 384.51 118.57 385.00 123.98 C 385.59 130.33 384.59 136.66 384.15 142.98 C 382.22 171.99 380.21 200.99 377.96 229.98 C 377.94 240.02 376.12 249.94 376.00 259.97 C 375.96 264.23 375.15 268.44 375.20 272.70 C 376.19 273.22 377.19 273.73 378.20 274.22 C 374.52 273.83 370.89 273.16 367.24 272.55 C 365.02 268.10 361.49 264.34 357.19 261.85 C 357.91 246.91 359.48 232.02 359.88 217.07 C 360.48 209.71 361.25 202.36 361.38 194.97 C 361.57 185.63 362.83 176.37 363.21 167.04 C 363.56 152.93 365.48 138.89 365.47 124.77 C 319.69 124.54 273.90 124.60 228.13 124.73 C 227.42 124.82 226.01 125.00 225.30 125.09 C 222.05 171.37 219.29 217.69 216.24 263.98 C 216.22 274.31 213.97 284.55 214.66 294.87 C 212.78 295.29 210.28 295.21 209.34 297.28 C 207.94 300.85 209.17 304.72 209.59 308.36 C 209.19 310.77 208.59 313.15 207.62 315.39 C 206.84 314.27 206.05 313.15 205.25 312.05 C 201.97 314.33 198.54 316.38 195.16 318.50 C 194.77 312.63 196.09 306.84 196.19 300.99 C 196.92 289.40 197.93 277.85 198.76 266.27 C 200.35 246.38 201.54 226.46 203.32 206.58 C 203.63 199.36 204.05 192.15 204.96 184.99 C 205.62 170.65 207.06 156.37 207.99 142.05 C 209.20 133.49 207.99 124.48 211.35 116.31 M 285.37 110.39 C 283.10 110.93 283.70 114.83 285.95 114.78 C 292.94 114.98 299.94 114.76 306.94 114.87 C 308.38 114.75 310.00 115.06 311.33 114.34 C 312.70 113.02 312.12 110.18 310.00 110.21 C 301.80 110.19 293.53 109.82 285.37 110.39 Z" />
<path fill="#c7ccea" opacity="1.00" d=" M 317.03 152.36 C 328.02 152.30 339.01 152.35 350.00 152.32 C 353.15 151.93 355.98 154.90 355.49 158.04 C 355.08 167.70 354.21 177.33 354.18 187.01 C 354.38 189.90 352.27 193.15 349.08 192.82 C 338.02 192.89 326.96 192.82 315.90 192.86 C 311.72 189.88 312.99 184.30 313.13 179.91 C 314.04 172.64 313.96 165.30 314.27 157.99 C 314.10 155.70 315.71 154.01 317.03 152.36 M 329.38 160.40 C 324.21 161.84 319.91 166.62 319.72 172.09 C 319.29 178.89 325.12 185.64 332.09 185.45 C 338.97 186.01 345.24 179.87 345.24 173.06 C 345.79 164.99 337.15 158.05 329.38 160.40 Z" />
<path fill="#c7ccea" opacity="1.00" d=" M 312.04 209.76 C 323.32 209.34 334.63 209.63 345.93 209.57 C 349.42 209.22 352.14 212.70 351.45 216.02 C 350.83 225.34 350.45 234.68 350.22 244.02 C 350.41 246.95 348.40 250.52 345.03 249.99 C 333.62 249.98 322.20 250.08 310.79 249.93 C 307.77 244.77 309.34 238.64 309.63 233.03 C 310.45 225.28 309.14 217.19 312.04 209.76 M 324.34 218.43 C 319.46 220.38 316.47 225.82 316.87 230.98 C 317.11 237.30 322.73 242.71 329.01 242.86 C 336.70 243.33 343.80 235.74 341.99 228.01 C 341.15 219.90 331.59 215.06 324.34 218.43 Z" />
<path fill="#c7ccea" opacity="1.00" d=" M 354.24 304.84 C 356.63 303.84 358.81 302.43 360.95 300.97 C 363.60 304.67 368.69 306.28 372.80 304.01 C 372.24 309.66 372.25 315.35 371.82 321.01 C 370.54 331.63 370.60 342.36 369.28 352.98 C 368.26 371.22 366.81 389.43 365.55 407.66 C 364.66 418.03 357.12 426.62 347.94 430.91 C 350.77 431.10 353.60 431.46 356.38 432.08 C 307.42 432.14 258.46 432.10 209.51 432.10 C 205.79 429.89 201.40 428.81 198.18 425.80 C 194.93 423.22 193.10 419.41 190.25 416.46 C 192.91 404.94 195.85 393.49 198.40 381.95 C 199.77 375.99 196.36 369.77 190.89 367.28 C 192.36 358.07 192.73 348.70 192.90 339.39 C 199.73 335.32 206.22 330.66 213.30 327.02 C 213.13 327.61 212.79 328.81 212.62 329.40 C 211.72 333.54 211.37 337.77 211.09 341.99 C 210.48 358.00 208.88 373.96 208.19 389.97 C 208.90 390.02 210.31 390.12 211.02 390.17 C 257.01 390.22 303.00 389.65 348.98 389.08 C 350.67 377.75 350.14 366.26 351.38 354.89 C 352.30 346.63 352.25 338.31 352.84 330.03 C 353.34 321.64 354.46 313.27 354.24 304.84 M 270.32 396.34 C 264.61 397.79 260.56 403.18 260.13 408.95 C 259.70 416.16 265.65 423.22 273.03 423.32 C 280.95 424.24 288.41 417.02 287.61 409.05 C 287.73 400.54 278.37 393.70 270.32 396.34 Z" />
<path fill="#c7ccea" opacity="1.00" d=" M 271.29 398.34 C 278.22 396.36 286.25 402.69 285.49 410.01 C 285.60 416.36 279.40 422.01 273.06 421.24 C 265.89 421.03 260.32 412.75 262.96 406.07 C 264.05 402.19 267.42 399.26 271.29 398.34 Z" />
<path fill="#c7ccea" opacity="1.00" d=" M 221.27 469.19 C 222.30 467.23 224.91 466.82 226.94 466.94 C 236.95 467.35 246.95 468.08 256.98 468.25 C 259.28 468.09 261.40 469.19 262.75 471.03 L 262.64 471.60 C 261.25 477.70 261.59 484.05 260.27 490.15 C 259.30 493.78 254.78 492.97 251.93 493.07 C 241.42 492.58 230.93 491.88 220.40 491.69 L 220.00 491.68 C 219.41 490.17 218.78 488.60 219.13 486.95 C 219.80 481.03 220.07 475.04 221.27 469.19 Z" />
</g>
<g id="#d8ddfbff">
<path fill="#d8ddfb" opacity="1.00" d=" M 363.73 99.82 C 366.48 99.81 369.24 99.66 372.00 99.73 C 379.79 99.85 387.40 103.63 392.28 109.70 C 397.60 115.57 399.47 123.90 398.51 131.63 C 397.53 140.01 397.85 148.48 396.56 156.83 C 396.20 164.54 395.66 172.24 394.97 179.94 C 395.55 189.68 393.44 199.27 393.00 208.96 C 393.42 219.02 390.90 228.92 391.05 238.98 C 391.05 242.99 389.93 246.91 390.02 250.92 C 390.52 258.53 387.79 266.18 389.90 273.71 C 389.45 274.38 389.00 275.06 388.57 275.74 C 385.08 275.40 381.66 274.70 378.20 274.22 C 377.19 273.73 376.19 273.22 375.20 272.70 C 375.15 268.44 375.96 264.23 376.00 259.97 C 376.12 249.94 377.94 240.02 377.96 229.98 C 380.21 200.99 382.22 171.99 384.15 142.98 C 384.59 136.66 385.59 130.33 385.00 123.98 C 384.51 118.57 381.96 113.53 378.64 109.31 C 374.78 104.66 368.95 102.51 363.73 99.82 Z" />
<path fill="#d8ddfb" opacity="1.00" d=" M 233.25 158.96 C 233.33 156.19 234.48 152.08 237.95 152.34 C 264.31 152.32 290.68 152.30 317.03 152.36 C 315.71 154.01 314.10 155.70 314.27 157.99 C 313.96 165.30 314.04 172.64 313.13 179.91 C 312.99 184.30 311.72 189.88 315.90 192.86 C 289.92 192.80 263.94 192.90 237.97 192.81 C 235.48 193.03 232.46 191.89 232.21 189.05 C 232.08 179.02 232.65 168.97 233.25 158.96 M 243.04 162.74 C 247.01 163.24 251.01 162.93 255.00 163.00 C 272.72 162.95 290.45 163.10 308.17 162.93 C 308.17 162.46 308.17 161.52 308.17 161.05 C 287.46 160.98 266.75 161.05 246.04 161.01 C 244.71 161.08 242.76 160.79 243.04 162.74 M 242.70 171.06 C 242.82 171.50 243.06 172.37 243.18 172.80 C 264.68 172.99 286.22 172.99 307.73 172.80 C 307.81 172.38 307.98 171.53 308.07 171.11 C 286.28 170.88 264.49 170.97 242.70 171.06 M 242.39 181.40 C 242.29 181.77 242.09 182.53 241.99 182.91 C 253.06 183.24 264.18 183.20 275.26 182.93 C 275.12 182.54 274.84 181.75 274.71 181.36 C 263.94 181.38 253.16 181.30 242.39 181.40 Z" />
<path fill="#d8ddfb" opacity="1.00" d=" M 248.94 290.33 C 270.29 287.44 291.66 284.64 313.01 281.81 C 315.37 281.34 317.96 282.98 318.56 285.30 C 319.23 288.13 319.43 291.05 319.81 293.94 C 320.55 300.31 321.70 306.64 322.21 313.04 C 322.46 315.82 320.53 318.48 317.64 318.55 C 284.72 322.97 251.76 327.11 218.88 331.80 C 217.53 331.81 216.18 331.79 214.83 331.75 C 214.09 330.96 213.36 330.18 212.62 329.40 C 212.79 328.81 213.13 327.61 213.30 327.02 C 214.12 325.69 213.20 324.36 212.48 323.26 C 215.37 322.18 218.55 322.96 221.53 322.21 C 230.06 321.32 238.51 319.76 247.06 318.96 C 248.45 318.78 250.18 318.58 250.68 316.97 C 241.66 317.28 232.86 319.54 223.86 320.09 C 225.67 317.89 226.05 315.04 225.90 312.29 C 237.29 310.89 248.64 309.18 260.04 307.82 C 265.74 306.60 271.66 306.74 277.30 305.29 C 277.60 304.98 278.20 304.36 278.50 304.05 C 260.83 305.63 243.32 308.71 225.69 310.71 C 224.26 307.27 220.78 304.76 216.98 305.15 C 214.11 304.98 211.79 306.79 209.59 308.36 C 209.17 304.72 207.94 300.85 209.34 297.28 C 210.28 295.21 212.78 295.29 214.66 294.87 C 215.17 294.79 216.18 294.61 216.69 294.52 C 217.12 292.66 217.46 290.78 217.67 288.89 C 217.68 290.65 217.79 292.40 217.91 294.16 C 228.30 293.43 238.58 291.48 248.94 290.33 M 218.40 302.43 C 218.31 302.79 218.14 303.49 218.05 303.85 C 236.45 301.89 254.72 298.98 273.09 296.78 C 274.43 296.29 276.91 296.82 277.08 294.84 C 257.47 296.92 237.96 299.94 218.40 302.43 Z" />
<path fill="#d8ddfb" opacity="1.00" d=" M 372.80 304.01 C 374.05 302.89 375.30 301.71 376.98 301.27 C 376.99 302.17 377.02 303.95 377.04 304.84 C 387.43 305.01 397.83 304.52 408.21 305.10 C 400.97 306.76 393.51 304.93 386.23 306.11 C 385.45 322.78 383.43 339.37 382.90 356.06 C 381.56 368.33 381.33 380.68 380.03 392.96 C 379.79 399.67 379.55 406.45 378.05 413.03 C 377.15 416.91 374.64 420.12 372.18 423.15 C 368.71 427.47 363.49 429.71 358.65 432.11 C 358.08 432.10 356.95 432.09 356.38 432.08 C 353.60 431.46 350.77 431.10 347.94 430.91 C 357.12 426.62 364.66 418.03 365.55 407.66 C 366.81 389.43 368.26 371.22 369.28 352.98 C 370.60 342.36 370.54 331.63 371.82 321.01 C 372.25 315.35 372.24 309.66 372.80 304.01 Z" />
</g>
<g id="#8893cbff">
<path fill="#8893cb" opacity="1.00" d=" M 285.37 110.39 C 293.53 109.82 301.80 110.19 310.00 110.21 C 312.12 110.18 312.70 113.02 311.33 114.34 C 310.00 115.06 308.38 114.75 306.94 114.87 C 299.94 114.76 292.94 114.98 285.95 114.78 C 283.70 114.83 283.10 110.93 285.37 110.39 Z" />
<path fill="#8893cb" opacity="1.00" d=" M 242.39 181.40 C 253.16 181.30 263.94 181.38 274.71 181.36 C 274.84 181.75 275.12 182.54 275.26 182.93 C 264.18 183.20 253.06 183.24 241.99 182.91 C 242.09 182.53 242.29 181.77 242.39 181.40 Z" />
<path fill="#8893cb" opacity="1.00" d=" M 218.40 302.43 C 237.96 299.94 257.47 296.92 277.08 294.84 C 276.91 296.82 274.43 296.29 273.09 296.78 C 254.72 298.98 236.45 301.89 218.05 303.85 C 218.14 303.49 218.31 302.79 218.40 302.43 Z" />
<path fill="#8893cb" opacity="1.00" d=" M 225.69 310.71 C 243.32 308.71 260.83 305.63 278.50 304.05 C 278.20 304.36 277.60 304.98 277.30 305.29 C 271.66 306.74 265.74 306.60 260.04 307.82 C 248.64 309.18 237.29 310.89 225.90 312.29 L 225.69 310.71 Z" />
<path fill="#8893cb" opacity="1.00" d=" M 270.32 396.34 C 278.37 393.70 287.73 400.54 287.61 409.05 C 288.41 417.02 280.95 424.24 273.03 423.32 C 265.65 423.22 259.70 416.16 260.13 408.95 C 260.56 403.18 264.61 397.79 270.32 396.34 M 271.29 398.34 C 267.42 399.26 264.05 402.19 262.96 406.07 C 260.32 412.75 265.89 421.03 273.06 421.24 C 279.40 422.01 285.60 416.36 285.49 410.01 C 286.25 402.69 278.22 396.36 271.29 398.34 Z" />
</g>
<g id="#aab2d6ff">
<path fill="#aab2d6" opacity="1.00" d=" M 225.30 125.09 C 226.01 125.00 227.42 124.82 228.13 124.73 C 227.20 142.18 225.71 159.60 224.91 177.06 C 223.47 189.98 223.63 203.01 222.17 215.92 C 220.92 240.26 218.99 264.56 217.67 288.89 C 217.46 290.78 217.12 292.66 216.69 294.52 C 216.18 294.61 215.17 294.79 214.66 294.87 C 213.97 284.55 216.22 274.31 216.24 263.98 C 219.29 217.69 222.05 171.37 225.30 125.09 Z" />
</g>
<g id="#e1e4f7ff">
<path fill="#e1e4f7" opacity="1.00" d=" M 422.20 137.17 C 437.20 127.86 455.73 126.07 472.83 129.25 C 493.06 133.30 512.00 142.43 528.99 153.98 C 535.21 158.09 540.73 163.16 546.85 167.40 C 539.04 172.49 531.46 180.16 530.98 190.02 C 530.05 200.38 522.31 208.44 514.34 214.34 C 506.83 220.51 498.85 227.50 496.43 237.34 C 494.64 243.89 496.86 250.51 498.22 256.90 C 500.54 265.83 503.12 274.72 504.24 283.90 C 504.09 284.63 503.79 286.07 503.63 286.79 C 488.13 283.53 472.16 283.45 456.47 285.32 C 456.21 285.78 455.67 286.68 455.40 287.14 C 453.59 277.27 451.96 267.37 450.17 257.50 C 448.57 250.23 441.45 244.61 434.01 244.87 C 433.16 244.94 431.48 245.07 430.63 245.14 C 430.66 240.39 431.27 235.68 431.57 230.94 C 431.75 229.46 432.00 227.98 432.25 226.51 C 433.84 225.74 435.89 225.42 436.84 223.75 C 437.87 222.21 437.29 220.26 437.35 218.53 C 436.51 217.78 435.69 217.03 434.88 216.26 C 435.96 211.11 437.90 203.93 432.65 200.38 C 428.06 197.92 422.51 199.93 417.71 198.28 C 413.77 197.06 412.86 191.97 408.93 190.75 C 403.69 189.47 398.37 193.84 397.82 199.01 C 397.70 202.01 399.72 204.58 401.81 206.51 C 401.44 213.35 400.41 220.19 400.87 227.04 C 401.77 235.17 410.04 240.55 417.87 239.91 C 417.76 242.05 417.64 244.19 417.51 246.33 C 416.28 246.41 415.05 246.51 413.82 246.62 C 409.41 247.07 406.97 251.27 404.51 254.44 C 399.43 260.70 394.49 267.08 389.90 273.71 C 387.79 266.18 390.52 258.53 390.02 250.92 C 389.93 246.91 391.05 242.99 391.05 238.98 C 390.90 228.92 393.42 219.02 393.00 208.96 C 393.44 199.27 395.55 189.68 394.97 179.94 C 395.66 172.24 396.20 164.54 396.56 156.83 C 396.74 157.37 397.11 158.47 397.29 159.02 C 400.33 156.46 402.64 153.22 405.38 150.38 C 410.57 145.48 416.02 140.79 422.20 137.17 M 473.59 169.37 C 472.47 173.45 469.61 176.49 466.18 178.79 C 470.30 180.96 472.26 185.08 474.28 189.04 C 475.16 187.29 475.84 185.45 476.72 183.70 C 478.22 181.83 480.17 180.37 481.75 178.56 C 478.05 176.61 475.87 173.16 474.63 169.29 C 474.37 169.31 473.85 169.35 473.59 169.37 Z" />
<path fill="#e1e4f7" opacity="1.00" d=" M 570.82 240.99 C 571.40 228.94 579.58 219.45 584.53 208.99 C 585.55 212.44 587.82 215.26 589.69 218.27 C 605.75 243.16 617.69 270.72 624.77 299.48 C 619.07 298.12 612.73 297.40 607.40 300.39 C 601.10 303.92 598.70 311.41 597.62 318.11 C 596.74 328.11 596.89 338.35 599.32 348.14 C 596.26 346.70 591.63 345.30 589.61 348.99 C 587.60 343.31 583.63 338.67 580.44 333.64 C 576.38 328.81 572.84 323.35 567.57 319.72 C 567.97 315.83 568.73 311.94 570.42 308.40 C 572.62 303.24 576.79 299.32 579.60 294.53 C 582.40 289.79 584.82 284.62 585.10 279.03 C 585.55 272.08 582.42 265.61 579.62 259.45 C 575.88 253.77 570.47 248.32 570.82 240.99 Z" />
</g>
<g id="#8f9bcdff">
<path fill="#8f9bcd" opacity="1.00" d=" M 243.04 162.74 C 242.76 160.79 244.71 161.08 246.04 161.01 C 266.75 161.05 287.46 160.98 308.17 161.05 C 308.17 161.52 308.17 162.46 308.17 162.93 C 290.45 163.10 272.72 162.95 255.00 163.00 C 251.01 162.93 247.01 163.24 243.04 162.74 Z" />
</g>
<g id="#82b7fbff">
<path fill="#82b7fb" opacity="1.00" d=" M 546.85 167.40 C 555.02 162.06 565.33 159.59 574.89 162.08 C 582.96 164.87 590.90 171.12 592.34 179.99 C 593.63 190.26 589.21 200.13 584.53 208.99 C 579.58 219.45 571.40 228.94 570.82 240.99 C 570.47 248.32 575.88 253.77 579.62 259.45 C 582.42 265.61 585.55 272.08 585.10 279.03 C 584.82 284.62 582.40 289.79 579.60 294.53 C 576.79 299.32 572.62 303.24 570.42 308.40 C 568.73 311.94 567.97 315.83 567.57 319.72 C 566.49 332.86 570.52 346.07 568.09 359.19 C 566.96 363.76 565.03 368.31 561.60 371.63 C 552.25 380.52 539.58 385.37 526.84 386.48 C 525.97 356.53 528.58 326.61 532.67 296.97 C 533.09 294.32 533.35 291.63 534.04 289.03 C 534.98 287.65 536.43 286.75 537.75 285.77 C 544.08 281.34 550.57 277.16 557.05 272.97 C 558.21 272.36 558.89 271.29 559.06 270.00 C 556.01 269.46 553.63 271.64 551.24 273.13 C 545.77 276.67 540.40 280.36 534.99 283.98 C 535.24 278.67 536.49 273.49 537.40 268.28 C 540.24 252.86 543.49 237.52 547.33 222.32 C 548.32 218.25 549.71 214.25 550.05 210.05 C 549.39 210.11 548.06 210.23 547.40 210.29 C 543.39 224.79 540.45 239.55 536.89 254.15 C 532.81 245.84 530.85 236.70 527.88 228.00 C 526.02 226.15 525.20 229.76 525.99 230.98 C 528.17 240.23 531.46 249.18 535.07 257.95 C 536.18 260.18 535.54 262.67 535.10 264.99 C 532.11 279.66 530.32 294.53 527.90 309.30 C 524.87 304.69 523.12 299.38 520.10 294.78 C 519.62 294.58 518.66 294.17 518.18 293.96 C 517.81 295.24 517.91 296.48 518.49 297.67 C 521.07 303.57 524.66 309.02 526.96 315.04 C 526.88 326.37 524.74 337.65 524.65 349.00 C 524.09 361.50 523.54 374.02 524.13 386.53 C 512.09 384.39 499.72 378.33 493.87 367.06 C 489.55 359.44 489.80 350.42 490.41 341.97 C 491.98 328.01 500.79 316.31 503.66 302.70 C 505.05 296.55 505.05 290.14 504.24 283.90 C 503.12 274.72 500.54 265.83 498.22 256.90 C 496.86 250.51 494.64 243.89 496.43 237.34 C 498.85 227.50 506.83 220.51 514.34 214.34 C 522.31 208.44 530.05 200.38 530.98 190.02 C 531.46 180.16 539.04 172.49 546.85 167.40 Z" />
</g>
<g id="#d0d4ecff">
<path fill="#d0d4ec" opacity="1.00" d=" M 330.87 174.17 C 334.07 172.29 336.35 168.94 340.02 167.90 C 340.08 168.44 340.21 169.51 340.27 170.04 C 337.05 172.90 333.79 175.83 330.05 177.99 C 328.24 176.13 325.46 174.68 324.82 172.05 C 326.63 169.15 328.74 174.19 330.87 174.17 Z" />
</g>
<g id="#9099caff">
<path fill="#9099ca" opacity="1.00" d=" M 242.70 171.06 C 264.49 170.97 286.28 170.88 308.07 171.11 C 307.98 171.53 307.81 172.38 307.73 172.80 C 286.22 172.99 264.68 172.99 243.18 172.80 C 243.06 172.37 242.82 171.50 242.70 171.06 Z" />
</g>
<g id="#21283bff">
<path fill="#21283b" opacity="1.00" d=" M 397.82 199.01 C 398.37 193.84 403.69 189.47 408.93 190.75 C 412.86 191.97 413.77 197.06 417.71 198.28 C 422.51 199.93 428.06 197.92 432.65 200.38 C 437.90 203.93 435.96 211.11 434.88 216.26 C 431.69 215.44 428.75 216.86 427.38 219.83 C 425.24 220.16 425.62 217.38 426.03 216.10 C 426.32 213.66 427.61 210.41 425.73 208.44 C 417.83 207.35 409.37 210.05 401.81 206.51 C 399.72 204.58 397.70 202.01 397.82 199.01 Z" />
<path fill="#21283b" opacity="1.00" d=" M 106.70 253.74 C 108.30 246.05 117.55 241.37 124.78 244.30 C 131.49 246.57 135.47 254.55 133.23 261.26 C 139.20 260.39 144.92 262.67 149.64 266.18 C 154.30 264.88 161.28 266.29 162.06 271.92 C 163.10 276.45 158.74 280.49 154.33 279.67 C 151.28 279.50 148.29 278.92 145.36 278.11 C 145.20 279.34 145.05 280.57 144.89 281.81 C 142.52 281.93 139.24 283.04 139.57 286.01 C 139.03 288.59 141.29 290.10 143.34 290.94 C 142.59 295.22 140.01 299.41 135.49 300.39 C 132.45 300.59 129.47 299.84 126.57 299.05 C 122.20 297.01 118.75 293.15 117.48 288.49 C 115.40 282.69 118.33 276.84 118.99 271.06 C 110.68 270.74 104.09 261.69 106.70 253.74 Z" />
</g>
<g id="#f2bd9bff">
<path fill="#f2bd9b" opacity="1.00" d=" M 401.81 206.51 C 409.37 210.05 417.83 207.35 425.73 208.44 C 427.61 210.41 426.32 213.66 426.03 216.10 C 425.62 217.38 425.24 220.16 427.38 219.83 C 428.75 216.86 431.69 215.44 434.88 216.26 C 435.69 217.03 436.51 217.78 437.35 218.53 C 437.29 220.26 437.87 222.21 436.84 223.75 C 435.89 225.42 433.84 225.74 432.25 226.51 C 432.00 227.98 431.75 229.46 431.57 230.94 C 431.27 230.83 430.67 230.60 430.37 230.49 C 429.10 232.45 428.21 234.80 426.24 236.21 C 423.73 237.98 420.77 238.98 417.87 239.91 C 410.04 240.55 401.77 235.17 400.87 227.04 C 400.41 220.19 401.44 213.35 401.81 206.51 M 403.32 226.82 C 404.56 230.95 409.38 231.55 413.02 230.83 C 415.10 230.53 416.99 228.70 416.86 226.51 C 413.92 226.43 410.97 226.39 408.04 226.15 C 406.48 226.18 404.50 225.37 403.32 226.82 Z" />
<path fill="#f2bd9b" opacity="1.00" d=" M 145.36 278.11 C 148.29 278.92 151.28 279.50 154.33 279.67 C 153.06 284.57 152.99 289.92 150.45 294.41 C 148.36 298.16 144.30 299.94 140.57 301.63 C 138.80 301.58 137.12 301.01 135.49 300.39 C 140.01 299.41 142.59 295.22 143.34 290.94 C 141.29 290.10 139.03 288.59 139.57 286.01 C 139.24 283.04 142.52 281.93 144.89 281.81 C 145.05 280.57 145.20 279.34 145.36 278.11 Z" />
<path fill="#f2bd9b" opacity="1.00" d=" M 209.59 308.36 C 211.79 306.79 214.11 304.98 216.98 305.15 C 220.78 304.76 224.26 307.27 225.69 310.71 L 225.90 312.29 C 226.05 315.04 225.67 317.89 223.86 320.09 C 223.10 320.81 222.32 321.52 221.53 322.21 C 218.55 322.96 215.37 322.18 212.48 323.26 C 210.78 320.68 209.18 318.05 207.62 315.39 C 208.59 313.15 209.19 310.77 209.59 308.36 Z" />
</g>
<g id="#d8defbff">
<path fill="#d8defb" opacity="1.00" d=" M 229.35 214.97 C 229.43 212.10 231.94 209.27 234.95 209.60 C 260.64 209.70 286.35 209.38 312.04 209.76 C 309.14 217.19 310.45 225.28 309.63 233.03 C 309.34 238.64 307.77 244.77 310.79 249.93 C 284.84 250.01 258.88 250.00 232.92 249.95 C 229.54 250.60 227.63 246.86 228.04 243.97 C 228.63 234.31 228.93 224.64 229.35 214.97 M 239.14 218.32 C 239.00 219.62 239.58 220.18 240.89 220.00 C 262.06 220.04 283.24 220.01 304.41 220.01 C 304.28 219.58 304.04 218.71 303.92 218.27 C 296.60 217.89 289.26 218.22 281.94 218.12 C 267.67 218.25 253.39 217.84 239.14 218.32 M 238.83 228.66 L 238.86 230.16 C 259.22 230.34 279.57 230.14 299.93 230.26 C 301.36 230.28 302.79 230.17 304.21 229.96 C 303.94 229.62 303.41 228.93 303.15 228.59 C 281.71 228.59 260.27 228.46 238.83 228.66 M 237.95 239.95 C 248.98 240.56 260.07 240.20 271.12 240.15 L 271.11 238.66 C 260.37 238.49 249.63 238.56 238.89 238.60 C 238.66 238.94 238.19 239.61 237.95 239.95 Z" />
</g>
<g id="#4d8cd8ff">
<path fill="#4d8cd8" opacity="1.00" d=" M 547.40 210.29 C 548.06 210.23 549.39 210.11 550.05 210.05 C 549.71 214.25 548.32 218.25 547.33 222.32 C 543.49 237.52 540.24 252.86 537.40 268.28 C 536.49 273.49 535.24 278.67 534.99 283.98 C 540.40 280.36 545.77 276.67 551.24 273.13 C 553.63 271.64 556.01 269.46 559.06 270.00 C 558.89 271.29 558.21 272.36 557.05 272.97 C 550.57 277.16 544.08 281.34 537.75 285.77 C 536.43 286.75 534.98 287.65 534.04 289.03 C 533.35 291.63 533.09 294.32 532.67 296.97 C 528.58 326.61 525.97 356.53 526.84 386.48 C 527.58 401.76 528.82 417.09 531.82 432.12 C 530.77 432.12 529.72 432.12 528.69 432.13 C 526.05 417.07 524.44 401.83 524.13 386.53 C 523.54 374.02 524.09 361.50 524.65 349.00 C 524.74 337.65 526.88 326.37 526.96 315.04 C 524.66 309.02 521.07 303.57 518.49 297.67 C 517.91 296.48 517.81 295.24 518.18 293.96 C 518.66 294.17 519.62 294.58 520.10 294.78 C 523.12 299.38 524.87 304.69 527.90 309.30 C 530.32 294.53 532.11 279.66 535.10 264.99 C 535.54 262.67 536.18 260.18 535.07 257.95 C 531.46 249.18 528.17 240.23 525.99 230.98 C 525.20 229.76 526.02 226.15 527.88 228.00 C 530.85 236.70 532.81 245.84 536.89 254.15 C 540.45 239.55 543.39 224.79 547.40 210.29 Z" />
</g>
<g id="#99a4d3ff">
<path fill="#99a4d3" opacity="1.00" d=" M 239.14 218.32 C 253.39 217.84 267.67 218.25 281.94 218.12 C 289.26 218.22 296.60 217.89 303.92 218.27 C 304.04 218.71 304.28 219.58 304.41 220.01 C 283.24 220.01 262.06 220.04 240.89 220.00 C 239.58 220.18 239.00 219.62 239.14 218.32 Z" />
</g>
<g id="#d0d3ebff">
<path fill="#d0d3eb" opacity="1.00" d=" M 327.30 231.78 C 330.77 230.08 332.98 226.41 336.74 225.27 C 338.19 226.38 336.97 228.06 335.84 228.79 C 332.95 231.00 330.34 233.67 327.01 235.22 C 325.14 233.18 321.09 231.35 322.21 228.11 C 324.33 228.63 325.77 230.34 327.30 231.78 Z" />
</g>
<g id="#fcfefeff">
<path fill="#fcfefe" opacity="1.00" d=" M 403.32 226.82 C 404.50 225.37 406.48 226.18 408.04 226.15 C 410.97 226.39 413.92 226.43 416.86 226.51 C 416.99 228.70 415.10 230.53 413.02 230.83 C 409.38 231.55 404.56 230.95 403.32 226.82 Z" />
</g>
<g id="#8594cbff">
<path fill="#8594cb" opacity="1.00" d=" M 238.83 228.66 C 260.27 228.46 281.71 228.59 303.15 228.59 C 303.41 228.93 303.94 229.62 304.21 229.96 C 302.79 230.17 301.36 230.28 299.93 230.26 C 279.57 230.14 259.22 230.34 238.86 230.16 L 238.83 228.66 Z" />
</g>
<g id="#edb38dff">
<path fill="#edb38d" opacity="1.00" d=" M 430.37 230.49 C 430.67 230.60 431.27 230.83 431.57 230.94 C 431.27 235.68 430.66 240.39 430.63 245.14 C 431.48 245.07 433.16 244.94 434.01 244.87 C 433.27 248.07 432.48 251.64 429.72 253.75 C 426.24 256.81 420.91 256.82 416.82 255.11 C 413.60 253.58 413.88 249.60 413.82 246.62 C 415.05 246.51 416.28 246.41 417.51 246.33 C 417.64 244.19 417.76 242.05 417.87 239.91 C 420.77 238.98 423.73 237.98 426.24 236.21 C 428.21 234.80 429.10 232.45 430.37 230.49 Z" />
</g>
<g id="#8794cbff">
<path fill="#8794cb" opacity="1.00" d=" M 237.95 239.95 C 238.19 239.61 238.66 238.94 238.89 238.60 C 249.63 238.56 260.37 238.49 271.11 238.66 L 271.12 240.15 C 260.07 240.20 248.98 240.56 237.95 239.95 Z" />
</g>
<g id="#6139fcff">
<path fill="#6139fc" opacity="1.00" d=" M 434.01 244.87 C 441.45 244.61 448.57 250.23 450.17 257.50 C 451.96 267.37 453.59 277.27 455.40 287.14 C 457.10 297.40 459.10 307.61 460.68 317.90 C 459.94 318.23 458.45 318.90 457.71 319.23 C 443.30 325.61 426.73 323.75 412.17 318.88 C 411.59 318.62 410.45 318.09 409.88 317.83 C 409.37 314.64 408.91 311.45 408.73 308.22 C 414.12 309.11 419.59 308.98 425.03 309.13 C 427.85 309.27 431.42 308.40 432.36 305.35 C 434.34 299.47 437.11 293.88 438.84 287.91 C 440.57 282.25 443.05 276.77 443.95 270.88 C 443.11 271.73 442.18 272.56 441.74 273.71 C 438.20 281.84 434.61 289.95 431.08 298.08 C 429.61 301.81 426.02 304.61 421.98 304.82 C 417.51 304.99 413.04 304.65 408.59 305.08 L 408.21 305.10 C 397.83 304.52 387.43 305.01 377.04 304.84 C 377.02 303.95 376.99 302.17 376.98 301.27 C 376.96 298.74 376.96 296.22 376.98 293.69 C 376.99 292.66 377.02 290.59 377.04 289.56 C 383.90 290.02 390.79 289.87 397.66 289.75 C 400.73 289.74 403.80 289.76 406.88 289.71 C 406.72 285.69 406.34 281.69 405.87 277.70 C 405.14 269.97 403.86 262.23 404.51 254.44 C 406.97 251.27 409.41 247.07 413.82 246.62 C 413.88 249.60 413.60 253.58 416.82 255.11 C 420.91 256.82 426.24 256.81 429.72 253.75 C 432.48 251.64 433.27 248.07 434.01 244.87 Z" />
<path fill="#6139fc" opacity="1.00" d=" M 136.74 373.64 C 141.36 371.69 145.29 368.54 149.13 365.39 C 160.10 365.83 171.08 366.14 182.06 366.34 C 185.01 366.42 188.06 366.26 190.89 367.28 C 196.36 369.77 199.77 375.99 198.40 381.95 C 195.85 393.49 192.91 404.94 190.25 416.46 C 189.02 421.67 187.78 426.87 186.58 432.09 C 186.49 432.45 186.31 433.15 186.23 433.51 C 185.16 438.16 183.81 442.75 183.02 447.46 C 182.23 447.46 180.65 447.46 179.86 447.46 C 176.81 447.34 173.77 447.11 170.72 447.00 C 169.81 446.95 167.98 446.87 167.07 446.82 C 167.31 442.37 167.76 437.93 168.44 433.52 C 168.49 433.17 168.57 432.47 168.61 432.12 C 169.83 417.87 171.98 403.71 172.99 389.44 L 172.70 388.98 C 172.44 388.66 171.92 388.04 171.66 387.72 C 165.14 387.70 158.67 386.27 152.34 384.81 C 152.06 383.64 151.77 382.48 151.49 381.32 C 146.75 383.87 141.34 385.57 137.61 389.63 C 137.38 389.87 136.92 390.34 136.69 390.58 C 138.47 404.39 139.73 418.27 140.81 432.14 C 140.75 432.49 140.62 433.19 140.56 433.54 C 139.51 438.27 134.61 441.00 130.02 440.82 C 107.23 441.13 84.46 442.75 61.66 442.80 C 61.59 442.35 61.44 441.45 61.37 441.00 C 60.94 437.87 60.46 434.76 60.22 431.62 C 60.19 431.04 60.13 429.88 60.10 429.30 C 62.68 429.11 65.26 428.94 67.85 428.81 L 69.45 428.71 C 82.99 428.40 96.46 426.79 110.00 426.42 C 112.28 426.29 114.63 426.44 116.80 425.64 C 111.49 409.75 106.79 393.64 101.76 377.66 L 101.90 377.07 C 113.52 378.11 125.92 378.85 136.74 373.64 Z" />
</g>
<g id="#4b30efff">
<path fill="#4b30ef" opacity="1.00" d=" M 389.90 273.71 C 394.49 267.08 399.43 260.70 404.51 254.44 C 403.86 262.23 405.14 269.97 405.87 277.70 C 403.14 281.72 400.53 285.83 397.66 289.75 C 390.79 289.87 383.90 290.02 377.04 289.56 C 375.27 289.33 373.51 289.03 371.76 288.78 C 370.99 288.69 369.47 288.50 368.70 288.40 C 369.78 283.14 369.53 277.46 367.24 272.55 C 370.89 273.16 374.52 273.83 378.20 274.22 C 381.66 274.70 385.08 275.40 388.57 275.74 C 389.00 275.06 389.45 274.38 389.90 273.71 Z" />
<path fill="#4b30ef" opacity="1.00" d=" M 441.74 273.71 C 442.18 272.56 443.11 271.73 443.95 270.88 C 443.05 276.77 440.57 282.25 438.84 287.91 C 437.11 293.88 434.34 299.47 432.36 305.35 C 431.42 308.40 427.85 309.27 425.03 309.13 C 419.59 308.98 414.12 309.11 408.73 308.22 C 408.70 307.44 408.62 305.86 408.59 305.08 C 413.04 304.65 417.51 304.99 421.98 304.82 C 426.02 304.61 429.61 301.81 431.08 298.08 C 434.61 289.95 438.20 281.84 441.74 273.71 Z" />
</g>
<g id="#fd7484ff">
<path fill="#fd7484" opacity="1.00" d=" M 322.73 277.79 C 324.37 268.67 332.09 261.28 341.10 259.50 C 346.55 258.65 352.29 259.16 357.19 261.85 C 361.49 264.34 365.02 268.10 367.24 272.55 C 369.53 277.46 369.78 283.14 368.70 288.40 C 365.71 288.87 362.24 289.99 361.07 293.10 C 359.73 295.56 360.24 298.41 360.95 300.97 C 358.81 302.43 356.63 303.84 354.24 304.84 C 344.72 308.52 333.23 305.24 327.02 297.16 C 326.13 295.77 325.28 294.36 324.46 292.93 C 322.45 288.21 321.34 282.85 322.73 277.79 M 356.14 275.09 C 351.46 279.02 346.62 282.75 341.92 286.66 C 339.53 284.49 337.38 282.06 334.94 279.95 C 333.16 278.52 331.98 280.62 331.37 282.02 C 334.15 285.68 337.57 288.81 341.00 291.85 C 341.43 291.80 342.30 291.70 342.73 291.66 C 347.99 287.62 353.05 283.32 358.27 279.23 C 359.18 278.27 360.85 277.49 360.56 275.90 C 360.19 273.79 357.35 273.75 356.14 275.09 Z" />
<path fill="#fd7484" opacity="1.00" d=" M 112.71 312.79 C 115.99 309.23 119.94 305.04 125.19 305.23 C 129.82 306.72 134.50 308.07 139.19 309.39 C 140.91 309.96 142.77 310.48 144.00 311.91 C 151.56 320.04 159.55 327.76 167.11 335.90 C 176.56 330.26 185.86 324.37 195.16 318.50 C 198.54 316.38 201.97 314.33 205.25 312.05 C 206.05 313.15 206.84 314.27 207.62 315.39 C 209.18 318.05 210.78 320.68 212.48 323.26 C 213.20 324.36 214.12 325.69 213.30 327.02 C 206.22 330.66 199.73 335.32 192.90 339.39 C 185.64 343.95 178.46 348.62 171.12 353.05 C 168.27 354.36 164.24 354.47 161.95 352.00 C 156.94 347.23 152.12 342.26 146.94 337.69 C 145.56 346.89 145.35 356.69 149.13 365.39 C 145.29 368.54 141.36 371.69 136.74 373.64 C 125.92 378.85 113.52 378.11 101.90 377.07 C 100.32 376.51 97.61 376.76 97.39 374.54 C 95.86 367.97 96.10 361.15 96.12 354.45 C 96.72 339.22 102.64 324.25 112.71 312.79 Z" />
</g>
<g id="#f3f8ffff">
<path fill="#f3f8ff" opacity="1.00" d=" M 356.14 275.09 C 357.35 273.75 360.19 273.79 360.56 275.90 C 360.85 277.49 359.18 278.27 358.27 279.23 C 353.05 283.32 347.99 287.62 342.73 291.66 C 342.30 291.70 341.43 291.80 341.00 291.85 C 337.57 288.81 334.15 285.68 331.37 282.02 C 331.98 280.62 333.16 278.52 334.94 279.95 C 337.38 282.06 339.53 284.49 341.92 286.66 C 346.62 282.75 351.46 279.02 356.14 275.09 Z" />
</g>
<g id="#fffefeff">
<path fill="#fffefe" opacity="1.00" d=" M 88.89 281.99 C 90.35 279.99 91.86 278.03 93.46 276.14 C 94.82 278.25 96.41 280.20 98.12 282.03 C 96.30 284.06 94.30 286.02 93.46 288.70 C 92.22 286.28 90.64 284.06 88.89 281.99 Z" />
</g>
<g id="#e1e3f7ff">
<path fill="#e1e3f7" opacity="1.00" d=" M 397.66 289.75 C 400.53 285.83 403.14 281.72 405.87 277.70 C 406.34 281.69 406.72 285.69 406.88 289.71 C 403.80 289.76 400.73 289.74 397.66 289.75 Z" />
<path fill="#e1e3f7" opacity="1.00" d=" M 617.50 360.15 C 619.64 351.68 624.72 344.39 628.66 336.71 C 629.33 348.72 626.54 360.59 623.21 372.05 C 622.66 374.05 621.60 375.84 620.61 377.64 C 619.47 371.82 616.00 366.28 617.50 360.15 Z" />
</g>
<g id="#85bafeff">
<path fill="#85bafe" opacity="1.00" d=" M 37.35 290.38 C 42.71 286.03 50.48 284.52 56.99 286.97 C 63.58 289.63 68.09 295.61 71.24 301.75 C 76.20 311.49 76.98 322.67 81.17 332.69 C 85.25 340.52 91.00 347.30 96.12 354.45 C 96.10 361.15 95.86 367.97 97.39 374.54 C 97.61 376.76 100.32 376.51 101.90 377.07 L 101.76 377.66 C 100.37 382.21 99.86 387.13 97.23 391.22 C 94.09 396.76 89.07 400.97 83.44 403.83 C 79.36 405.55 75.08 406.91 70.61 407.05 C 70.45 396.67 69.66 386.26 68.21 375.98 C 66.36 370.08 71.31 365.30 72.74 359.89 C 69.46 360.75 69.12 364.88 67.32 367.31 C 65.35 359.26 64.24 351.02 62.38 342.94 C 62.99 336.46 67.40 330.55 66.82 323.84 C 63.55 327.83 64.19 333.78 61.35 338.17 C 59.44 331.51 58.02 324.72 55.94 318.12 C 55.57 316.86 54.79 315.80 54.05 314.74 C 53.50 317.99 55.05 321.04 55.82 324.12 C 58.59 334.02 61.01 344.03 62.85 354.14 C 58.35 352.11 54.59 348.68 49.86 347.12 C 50.03 348.16 50.55 348.95 51.40 349.50 C 55.36 352.21 60.01 354.08 63.35 357.60 C 66.02 368.91 67.24 380.54 68.18 392.12 C 68.79 397.15 68.98 402.22 68.88 407.29 C 63.73 407.21 58.49 406.53 53.90 404.03 C 46.59 400.17 39.11 394.62 36.80 386.28 C 34.29 374.41 41.43 363.24 40.41 351.39 C 40.31 346.56 38.63 341.99 37.51 337.35 C 34.93 327.03 32.16 316.63 31.86 305.95 C 31.82 300.38 32.95 294.21 37.35 290.38 Z" />
</g>
<g id="#f2b074ff">
<path fill="#f2b074" opacity="1.00" d=" M 361.07 293.10 C 362.24 289.99 365.71 288.87 368.70 288.40 C 369.47 288.50 370.99 288.69 371.76 288.78 C 373.45 290.47 375.19 292.10 376.98 293.69 C 376.96 296.22 376.96 298.74 376.98 301.27 C 375.30 301.71 374.05 302.89 372.80 304.01 C 368.69 306.28 363.60 304.67 360.95 300.97 C 360.24 298.41 359.73 295.56 361.07 293.10 Z" />
</g>
<g id="#cfc4e8ff">
<path fill="#cfc4e8" opacity="1.00" d=" M 371.76 288.78 C 373.51 289.03 375.27 289.33 377.04 289.56 C 377.02 290.59 376.99 292.66 376.98 293.69 C 375.19 292.10 373.45 290.47 371.76 288.78 Z" />
</g>
<g id="#f6f6f6ff">
<path fill="#f6f6f6" opacity="1.00" d=" M 324.46 292.93 C 325.28 294.36 326.13 295.77 327.02 297.16 C 325.72 300.34 326.97 303.73 327.08 307.00 C 327.46 313.69 329.54 320.26 329.03 327.00 C 328.95 329.08 326.75 330.27 324.96 330.71 C 291.93 334.89 258.90 339.12 225.95 343.85 C 223.40 344.23 220.74 342.78 219.38 340.66 C 218.63 337.78 218.96 334.75 218.88 331.80 C 251.76 327.11 284.72 322.97 317.64 318.55 C 320.53 318.48 322.46 315.82 322.21 313.04 C 321.70 306.64 320.55 300.31 319.81 293.94 C 321.08 294.10 322.37 294.28 323.66 294.40 C 323.86 294.04 324.26 293.30 324.46 292.93 Z" />
</g>
<g id="#ebb38cff">
<path fill="#ebb38c" opacity="1.00" d=" M 126.57 299.05 C 129.47 299.84 132.45 300.59 135.49 300.39 C 137.12 301.01 138.80 301.58 140.57 301.63 C 140.18 304.23 139.72 306.81 139.19 309.39 C 134.50 308.07 129.82 306.72 125.19 305.23 C 125.66 303.17 126.11 301.11 126.57 299.05 Z" />
</g>
<g id="#4e91d9ff">
<path fill="#4e91d9" opacity="1.00" d=" M 54.05 314.74 C 54.79 315.80 55.57 316.86 55.94 318.12 C 58.02 324.72 59.44 331.51 61.35 338.17 C 64.19 333.78 63.55 327.83 66.82 323.84 C 67.40 330.55 62.99 336.46 62.38 342.94 C 64.24 351.02 65.35 359.26 67.32 367.31 C 69.12 364.88 69.46 360.75 72.74 359.89 C 71.31 365.30 66.36 370.08 68.21 375.98 C 69.66 386.26 70.45 396.67 70.61 407.05 C 70.61 414.28 70.50 421.53 69.45 428.71 L 67.85 428.81 C 68.80 421.67 69.08 414.48 68.88 407.29 C 68.98 402.22 68.79 397.15 68.18 392.12 C 67.24 380.54 66.02 368.91 63.35 357.60 C 60.01 354.08 55.36 352.21 51.40 349.50 C 50.55 348.95 50.03 348.16 49.86 347.12 C 54.59 348.68 58.35 352.11 62.85 354.14 C 61.01 344.03 58.59 334.02 55.82 324.12 C 55.05 321.04 53.50 317.99 54.05 314.74 Z" />
</g>
<g id="#939cccff">
<path fill="#939ccc" opacity="1.00" d=" M 223.86 320.09 C 232.86 319.54 241.66 317.28 250.68 316.97 C 250.18 318.58 248.45 318.78 247.06 318.96 C 238.51 319.76 230.06 321.32 221.53 322.21 C 222.32 321.52 223.10 320.81 223.86 320.09 Z" />
</g>
<g id="#393e5cff">
<path fill="#393e5c" opacity="1.00" d=" M 412.17 318.88 C 426.73 323.75 443.30 325.61 457.71 319.23 C 458.32 328.14 459.74 336.97 459.91 345.91 C 461.77 360.73 461.10 375.84 464.35 390.48 C 467.05 404.36 469.20 418.35 472.27 432.15 L 471.78 432.16 C 471.94 433.07 472.13 433.99 472.34 434.93 C 473.93 440.33 474.12 446.05 475.97 451.38 C 469.71 452.39 463.57 454.22 457.22 454.58 C 455.37 447.64 454.25 440.52 452.43 433.57 C 441.29 433.62 430.16 433.55 419.02 433.59 C 418.98 438.06 419.00 442.53 419.00 447.01 C 412.67 447.01 406.34 446.99 400.01 447.07 C 399.93 442.55 399.76 438.04 399.60 433.53 C 399.58 433.18 399.56 432.47 399.55 432.12 C 399.08 415.73 397.71 399.39 397.36 383.00 C 396.43 377.14 398.80 371.61 400.05 366.01 C 404.16 350.32 407.90 334.52 412.17 318.88 M 431.18 336.08 C 428.04 347.78 424.29 359.32 420.98 370.98 C 419.70 375.21 418.06 379.48 418.50 384.00 C 419.20 399.98 418.26 416.00 419.04 431.97 C 430.13 431.90 441.22 432.03 452.31 431.88 C 450.29 424.31 448.97 416.59 447.09 408.99 C 445.11 397.91 441.51 387.11 440.79 375.84 C 439.03 362.64 437.94 349.38 436.27 336.17 C 434.57 335.98 432.87 335.89 431.18 336.08 Z" />
</g>
<g id="#aab2d5ff">
<path fill="#aab2d5" opacity="1.00" d=" M 211.09 341.99 C 211.37 337.77 211.72 333.54 212.62 329.40 C 213.36 330.18 214.09 330.96 214.83 331.75 C 213.62 351.23 212.37 370.70 211.02 390.17 C 210.31 390.12 208.90 390.02 208.19 389.97 C 208.88 373.96 210.48 358.00 211.09 341.99 Z" />
</g>
<g id="#7fbaf8ff">
<path fill="#7fbaf8" opacity="1.00" d=" M 610.39 330.36 C 610.95 330.44 612.06 330.62 612.62 330.70 C 607.59 352.59 605.90 375.08 604.90 397.46 C 604.80 400.68 604.85 403.90 605.02 407.12 C 605.46 415.48 605.93 423.92 607.70 432.12 C 607.04 432.12 605.71 432.12 605.05 432.12 C 604.87 431.04 604.71 429.96 604.55 428.88 C 603.67 423.50 602.96 418.10 602.82 412.65 C 602.63 407.73 602.80 402.80 602.53 397.89 C 602.74 384.50 603.85 371.15 605.29 357.85 C 606.87 348.68 607.12 339.13 610.39 330.36 Z" />
</g>
<g id="#5832e4ff">
<path fill="#5832e4" opacity="1.00" d=" M 137.61 389.63 C 141.34 385.57 146.75 383.87 151.49 381.32 C 151.77 382.48 152.06 383.64 152.34 384.81 C 158.67 386.27 165.14 387.70 171.66 387.72 C 171.92 388.04 172.44 388.66 172.70 388.98 C 161.00 389.04 149.31 389.46 137.61 389.63 Z" />
</g>
<g id="#e6e8f8ff">
<path fill="#e6e8f8" opacity="1.00" d=" M 604.90 397.46 C 608.62 394.61 612.25 391.63 615.65 388.40 C 615.47 389.84 615.47 391.36 614.76 392.67 C 612.28 397.96 609.10 402.92 605.02 407.12 C 604.85 403.90 604.80 400.68 604.90 397.46 Z" />
</g>
<g id="#eaecfbff">
<path fill="#eaecfb" opacity="1.00" d=" M 190.25 416.46 C 193.10 419.41 194.93 423.22 198.18 425.80 C 201.40 428.81 205.79 429.89 209.51 432.10 C 201.86 432.13 194.22 432.15 186.58 432.09 C 187.78 426.87 189.02 421.67 190.25 416.46 Z" />
</g>
<g id="#1f2e3bff">
<path fill="#1f2e3b" opacity="1.00" d=" M 0.00 432.12 C 17.02 432.13 34.04 432.07 51.07 432.16 C 54.12 432.10 57.16 431.76 60.22 431.62 C 60.46 434.76 60.94 437.87 61.37 441.00 C 60.52 441.05 58.82 441.16 57.97 441.21 C 56.80 445.70 56.77 450.37 55.96 454.92 C 55.27 457.58 52.54 458.08 50.20 458.38 C 49.32 450.09 48.83 441.78 47.72 433.52 C 31.82 433.50 15.91 433.51 0.00 433.52 L 0.00 432.12 Z" />
<path fill="#1f2e3b" opacity="1.00" d=" M 405.75 455.27 C 408.83 455.25 411.91 455.27 415.00 455.32 C 415.27 456.56 415.57 457.80 415.81 459.06 C 415.90 462.45 415.88 465.85 415.79 469.26 C 406.43 469.13 397.06 469.28 387.70 469.17 C 388.26 467.48 388.89 465.49 390.78 464.87 C 395.65 463.37 400.71 462.55 405.59 461.04 C 405.62 459.11 405.67 457.19 405.75 455.27 M 408.35 459.51 C 407.65 462.07 410.32 464.12 412.36 462.24 C 414.19 459.51 410.31 457.13 408.35 459.51 Z" />
</g>
<g id="#1f2e3cff">
<path fill="#1f2e3c" opacity="1.00" d=" M 140.81 432.14 C 150.08 432.10 159.35 432.13 168.61 432.12 C 168.57 432.47 168.49 433.17 168.44 433.52 C 159.15 433.51 149.85 433.48 140.56 433.54 C 140.62 433.19 140.75 432.49 140.81 432.14 Z" />
<path fill="#1f2e3c" opacity="1.00" d=" M 186.23 433.51 C 186.31 433.15 186.49 432.45 186.58 432.09 C 194.22 432.15 201.86 432.13 209.51 432.10 C 258.46 432.10 307.42 432.14 356.38 432.08 C 356.95 432.09 358.08 432.10 358.65 432.11 C 372.28 432.12 385.91 432.15 399.55 432.12 C 399.56 432.47 399.58 433.18 399.60 433.53 C 328.47 433.50 257.35 433.54 186.23 433.51 Z" />
<path fill="#1f2e3c" opacity="1.00" d=" M 472.27 432.15 C 491.07 432.09 509.88 432.14 528.69 432.13 C 529.72 432.12 530.77 432.12 531.82 432.12 C 556.23 432.12 580.64 432.12 605.05 432.12 C 605.71 432.12 607.04 432.12 607.70 432.12 C 628.97 432.17 650.24 431.98 671.51 432.22 C 671.04 433.31 670.21 433.75 669.02 433.53 C 604.62 433.47 540.21 433.56 475.80 433.50 C 474.38 433.11 473.42 434.30 472.34 434.93 C 472.13 433.99 471.94 433.07 471.78 432.16 L 472.27 432.15 Z" />
<path fill="#1f2e3c" opacity="1.00" d=" M 464.99 461.94 C 467.96 461.08 471.04 460.64 474.07 460.03 C 474.47 464.44 475.95 468.69 476.10 473.12 C 466.76 474.20 457.42 475.32 448.16 476.84 C 448.13 475.08 448.50 473.02 450.37 472.32 C 455.01 470.08 460.01 468.69 464.72 466.59 C 464.64 465.97 464.48 464.75 464.40 464.13 C 464.55 463.58 464.84 462.49 464.99 461.94 M 468.47 463.67 C 465.64 464.92 468.14 469.31 470.69 467.66 C 473.47 466.44 470.84 461.95 468.47 463.67 Z" />
</g>
<g id="#1e2e3bff">
<path fill="#1e2e3b" opacity="1.00" d=" M 170.72 447.00 C 173.77 447.11 176.81 447.34 179.86 447.46 C 179.82 448.80 179.79 450.14 179.76 451.49 C 184.00 452.94 188.34 454.10 192.54 455.66 C 195.18 456.40 195.70 459.66 195.26 462.00 C 186.68 461.12 178.06 460.83 169.49 459.89 C 169.92 455.60 170.36 451.30 170.72 447.00 Z" />
</g>
<g id="#4f5977ff">
<path fill="#4f5977" opacity="1.00" d=" M 398.06 447.01 C 398.55 447.02 399.52 447.05 400.01 447.07 C 406.34 446.99 412.67 447.01 419.00 447.01 C 419.56 447.02 420.67 447.04 421.23 447.05 C 421.22 449.79 421.21 452.53 421.21 455.27 C 419.50 455.26 417.80 455.26 416.10 455.26 C 415.98 456.52 415.89 457.79 415.81 459.06 C 415.57 457.80 415.27 456.56 415.00 455.32 C 411.91 455.27 408.83 455.25 405.75 455.27 C 403.20 455.28 400.65 455.27 398.10 455.26 C 398.08 452.50 398.07 449.75 398.06 447.01 Z" />
</g>
<g id="#4f5877ff">
<path fill="#4f5877" opacity="1.00" d=" M 475.97 451.38 C 476.40 451.33 477.27 451.21 477.71 451.15 C 478.42 453.75 479.04 456.39 479.33 459.08 C 477.57 459.37 475.81 459.68 474.07 460.03 C 471.04 460.64 467.96 461.08 464.99 461.94 C 464.84 462.49 464.55 463.58 464.40 464.13 C 464.30 463.62 464.10 462.59 464.00 462.08 C 461.64 462.52 459.28 462.91 456.92 463.29 C 456.32 460.84 455.87 458.36 455.52 455.88 C 455.94 455.55 456.80 454.91 457.22 454.58 C 463.57 454.22 469.71 452.39 475.97 451.38 Z" />
</g>
<g id="#fdfdfbff">
<path fill="#fdfdfb" opacity="1.00" d=" M 408.35 459.51 C 410.31 457.13 414.19 459.51 412.36 462.24 C 410.32 464.12 407.65 462.07 408.35 459.51 Z" />
</g>
<g id="#fdfdfcff">
<path fill="#fdfdfc" opacity="1.00" d=" M 468.47 463.67 C 470.84 461.95 473.47 466.44 470.69 467.66 C 468.14 469.31 465.64 464.92 468.47 463.67 Z" />
</g>
<g id="#b4badaff">
<path fill="#b4bada" opacity="1.00" d=" M 260.27 490.15 C 261.59 484.05 261.25 477.70 262.64 471.60 C 263.60 473.34 264.89 474.97 265.37 476.94 C 265.45 483.05 263.78 489.00 263.53 495.09 C 263.86 497.98 260.40 499.10 258.06 498.91 C 247.40 498.67 236.75 497.86 226.09 497.56 C 222.76 497.66 221.43 494.24 220.40 491.69 C 230.93 491.88 241.42 492.58 251.93 493.07 C 254.78 492.97 259.30 493.78 260.27 490.15 Z" />
</g>
<g id="#c6cbe9ff">
<path fill="#c6cbe9" opacity="1.00" d=" M 448.16 476.84 C 457.42 475.32 466.76 474.20 476.10 473.12 C 475.97 473.71 475.71 474.88 475.58 475.46 C 466.42 476.61 457.30 478.10 448.11 478.92 C 448.12 478.40 448.14 477.36 448.16 476.84 Z" />
</g>
</svg>
